<svg xmlns="http://www.w3.org/2000/svg" viewBox="0 0 32 32">
  <defs>
    <linearGradient id="bg" x1="0" y1="0" x2="1" y2="1">
      <stop offset="0" stop-color="#0a0a1a"/>
      <stop offset="1" stop-color="#1a1a2e"/>
    </linearGradient>
    <linearGradient id="accent" x1="0" y1="0" x2="1" y2="0">
      <stop offset="0" stop-color="#6fa8ff"/>
      <stop offset="0.5" stop-color="#4f88ff"/>
      <stop offset="1" stop-color="#3366ff"/>
    </linearGradient>
    <linearGradient id="secondary" x1="0" y1="0" x2="1" y2="1">
      <stop offset="0" stop-color="#a8d8ff" stop-opacity="0.8"/>
      <stop offset="1" stop-color="#6fa8ff" stop-opacity="0.6"/>
    </linearGradient>
  </defs>

  <!-- Background with rounded corners -->
  <rect width="32" height="32" rx="8" fill="url(#bg)" stroke="url(#accent)" stroke-width="1"/>

  <!-- Geometric pattern representing code structure -->
  <rect x="4" y="6" width="8" height="1.5" rx="0.5" fill="url(#secondary)"/>
  <rect x="4" y="9" width="12" height="1.5" rx="0.5" fill="url(#accent)"/>
  <rect x="4" y="12" width="6" height="1.5" rx="0.5" fill="url(#secondary)"/>

  <!-- Stylized "JM" initials -->
  <g fill="url(#accent)" font-family="monospace" font-weight="bold" font-size="12">
    <!-- J -->
    <path d="M6 18 L6 24 Q6 26 8 26 Q10 26 10 24 L10 22" stroke="url(#accent)" stroke-width="1.5" fill="none" stroke-linecap="round"/>

    <!-- M -->
    <path d="M14 26 L14 18 L16 20 L18 18 L18 26" stroke="url(#accent)" stroke-width="1.5" fill="none" stroke-linecap="round" stroke-linejoin="round"/>
  </g>

  <!-- Tech accent dots -->
  <circle cx="24" cy="8" r="1.5" fill="url(#accent)" opacity="0.8"/>
  <circle cx="28" cy="12" r="1" fill="url(#secondary)"/>
  <circle cx="26" cy="24" r="1.2" fill="url(#accent)" opacity="0.6"/>
</svg>
